<svg width="48" height="48" xmlns="http://www.w3.org/2000/svg">

 <g>
  <title>background</title>
  <rect fill="none" id="canvas_background" height="402" width="582" y="-1" x="-1"/>
 </g>
 <g>
  <title>Layer 1</title>
  <path id="svg_1" fill="none" d="m0,0l48,0l0,48l-48,0l0,-48z"/>
  <path fill="#4caf50" id="svg_2" d="m13.25,21.59c2.88,5.66 7.51,10.29 13.18,13.17l4.4,-4.41c0.55,-0.55 1.34,-0.71 2.03,-0.49c2.24,0.74 4.65,1.14 7.14,1.14c1.11,0 2,0.89 2,2l0,7c0,1.11 -0.89,2 -2,2c-18.78,0 -34,-15.22 -34,-34c0,-1.11 0.9,-2 2,-2l7,0c1.11,0 2,0.89 2,2c0,2.49 0.4,4.9 1.14,7.14c0.22,0.69 0.06,1.48 -0.49,2.03l-4.4,4.42z"/>
 </g>
</svg>