<svg width="50" height="50" xmlns="http://www.w3.org/2000/svg">

 <g>
  <title>background</title>
  <rect fill="none" id="canvas_background" height="402" width="582" y="-1" x="-1"/>
 </g>
 <g>
  <title>Layer 1</title>
  <circle id="svg_1" stroke-width="2" stroke-miterlimit="10" stroke-linecap="round" stroke="#000000" r="24" fill="none" cy="25" cx="25"/>
  <rect id="svg_2" width="50" height="50" fill="none"/>
  <path fill="#4caf50" id="svg_4" d="m23.533,30.407l0,-1.47c0,-1.436 0.322,-2.188 1.075,-3.229l2.404,-3.3c1.254,-1.721 1.684,-2.546 1.684,-3.766c0,-2.044 -1.434,-3.335 -3.479,-3.335c-2.008,0 -3.299,1.219 -3.729,3.407c-0.036,0.215 -0.179,0.323 -0.395,0.287l-2.259,-0.395c-0.216,-0.036 -0.323,-0.179 -0.288,-0.395c0.539,-3.443 3.014,-5.703 6.744,-5.703c3.872,0 6.49,2.546 6.49,6.097c0,1.722 -0.608,2.977 -1.828,4.663l-2.403,3.3c-0.717,0.968 -0.933,1.47 -0.933,2.689l0,1.147c0,0.215 -0.143,0.358 -0.358,0.358l-2.367,0c-0.215,0.004 -0.358,-0.14 -0.358,-0.355zm-0.179,3.444c0,-0.215 0.143,-0.358 0.359,-0.358l2.726,0c0.215,0 0.358,0.144 0.358,0.358l0,3.084c0,0.216 -0.144,0.358 -0.358,0.358l-2.726,0c-0.217,0 -0.359,-0.143 -0.359,-0.358l0,-3.084z"/>
 </g>
</svg>